<?xml version="1.0" encoding="UTF-8"?>
<svg width="287px" height="273px" viewBox="0 0 287 273" version="1.1" xmlns="http://www.w3.org/2000/svg" xmlns:xlink="http://www.w3.org/1999/xlink">
    <title>Artboard</title>
    <defs>
        <rect id="path-1" x="0.629397884" y="0.295043074" width="21" height="43.75" rx="1.8"></rect>
        <rect id="path-3" x="0.629397884" y="0.295043074" width="21" height="43.75" rx="1.8"></rect>
        <path d="M67.6064957,8.039 L64.6804957,0 L2.20749568,19.563 C1.85349568,19.674 1.52149568,19.847 1.22649568,20.074 L1.22649568,20.074 C0.140495683,20.911 -0.279504317,22.356 0.190495683,23.644 L3.00549568,31.38 C3.47449568,32.669 4.72449568,33.506 6.09449568,33.449 L6.09449568,33.449 C6.46649568,33.434 6.83149568,33.353 7.17449568,33.21 L67.6064957,8.039 Z" id="path-5"></path>
    </defs>
    <g id="Artboard" stroke="none" stroke-width="1" fill="none" fill-rule="evenodd">
        <g id="Building_Standing-HardHat_Toolbox-6" transform="translate(29, 28)">
            <path d="M190.318645,169.0523 C191.452645,172.1663 189.846645,175.6093 186.732645,176.7423 L178.399645,179.7753 C175.285645,180.9093 171.842645,179.3033 170.709645,176.1893 L155.741645,135.0643 L175.350645,127.9273 L190.318645,169.0523 Z" id="Path" fill="#FFFFFF" fill-rule="nonzero"></path>
            <path d="M155.741645,135.0643 L155.399645,134.1253 L154.459645,134.4673 L154.801645,135.4063 L155.741645,135.0643 Z M175.350645,127.9273 L176.290645,127.5853 L175.948645,126.6453 L175.008645,126.9873 L175.350645,127.9273 Z M190.318645,169.0523 L191.258645,168.7103 L190.318645,169.0523 Z M186.390645,175.8033 L178.057645,178.8363 L178.741645,180.7153 L187.074645,177.6823 L186.390645,175.8033 Z M171.649645,175.8473 L156.680645,134.7223 L154.801645,135.4063 L169.769645,176.5313 L171.649645,175.8473 Z M156.083645,136.0043 L175.692645,128.8673 L175.008645,126.9873 L155.399645,134.1253 L156.083645,136.0043 Z M174.411645,128.2693 L189.379645,169.3943 L191.258645,168.7103 L176.290645,127.5853 L174.411645,128.2693 Z M178.057645,178.8363 C175.462645,179.7803 172.593645,178.4423 171.649645,175.8473 L169.769645,176.5313 C171.091645,180.1643 175.108645,182.0373 178.741645,180.7153 L178.057645,178.8363 Z M187.074645,177.6823 C190.707645,176.3603 192.580645,172.3433 191.258645,168.7103 L189.379645,169.3943 C190.323645,171.9893 188.985645,174.8583 186.390645,175.8033 L187.074645,177.6823 Z" id="Shape" fill="#000000" fill-rule="nonzero"></path>
            <path d="M93.1926445,93.0123 C49.0866445,84.1643 39.9692445,71.7485 36.9455445,66.9236 C35.3171445,64.3253 44.2656445,52.8531 44.2656445,52.8531 C44.2656445,52.8531 120.414645,98.4733 93.1926445,93.0123 Z" id="Path" stroke="#000000" stroke-width="2" fill="#000000" fill-rule="nonzero"></path>
            <path d="M143.088645,147.6603 L123.088645,147.6603 L123.088645,201.6603 C123.088645,204.2533 124.733645,206.4623 127.037645,207.3003 C127.622645,207.5603 128.259645,207.7303 128.932645,207.7913 L156.817645,210.3243 C160.118645,210.6243 163.036645,208.1923 163.336645,204.8923 L164.059645,196.9243 C164.359645,193.6243 161.927645,190.7063 158.627645,190.4063 L143.088645,188.9953 L143.088645,147.6603 Z" id="Path" fill="#FFFFFF"></path>
            <path d="M123.088645,147.6603 L123.088645,146.6603 L122.088645,146.6603 L122.088645,147.6603 L123.088645,147.6603 Z M143.088645,147.6603 L144.088645,147.6603 L144.088645,146.6603 L143.088645,146.6603 L143.088645,147.6603 Z M127.037645,207.3003 L127.443645,206.3863 L127.411645,206.3723 L127.379645,206.3603 L127.037645,207.3003 Z M128.932645,207.7913 L128.842645,208.7873 L128.842645,208.7873 L128.932645,207.7913 Z M156.817645,210.3243 L156.908645,209.3283 L156.908645,209.3283 L156.817645,210.3243 Z M163.336645,204.8923 L164.332645,204.9823 L164.332645,204.9823 L163.336645,204.8923 Z M164.059645,196.9243 L165.055645,197.0153 L165.055645,197.0153 L164.059645,196.9243 Z M158.627645,190.4063 L158.536645,191.4023 L158.536645,191.4023 L158.627645,190.4063 Z M143.088645,188.9953 L142.088645,188.9953 L142.088645,189.9083 L142.998645,189.9913 L143.088645,188.9953 Z M123.088645,148.6603 L143.088645,148.6603 L143.088645,146.6603 L123.088645,146.6603 L123.088645,148.6603 Z M124.088645,201.6603 L124.088645,147.6603 L122.088645,147.6603 L122.088645,201.6603 L124.088645,201.6603 Z M127.379645,206.3603 C125.458645,205.6613 124.088645,203.8193 124.088645,201.6603 L122.088645,201.6603 C122.088645,204.6873 124.009645,207.2623 126.695645,208.2403 L127.379645,206.3603 Z M129.023645,206.7953 C128.460645,206.7443 127.929645,206.6023 127.443645,206.3863 L126.630645,208.2143 C127.314645,208.5183 128.058645,208.7163 128.842645,208.7873 L129.023645,206.7953 Z M156.908645,209.3283 L129.023645,206.7953 L128.842645,208.7873 L156.727645,211.3203 L156.908645,209.3283 Z M162.340645,204.8013 C162.090645,207.5513 159.658645,209.5783 156.908645,209.3283 L156.727645,211.3203 C160.577645,211.6703 163.982645,208.8323 164.332645,204.9823 L162.340645,204.8013 Z M163.063645,196.8343 L162.340645,204.8013 L164.332645,204.9823 L165.055645,197.0153 L163.063645,196.8343 Z M158.536645,191.4023 C161.286645,191.6523 163.313645,194.0843 163.063645,196.8343 L165.055645,197.0153 C165.405645,193.1653 162.567645,189.7603 158.717645,189.4103 L158.536645,191.4023 Z M142.998645,189.9913 L158.536645,191.4023 L158.717645,189.4103 L143.179645,187.9993 L142.998645,189.9913 Z M142.088645,147.6603 L142.088645,188.9953 L144.088645,188.9953 L144.088645,147.6603 L142.088645,147.6603 Z" id="Shape" fill="#000000" fill-rule="nonzero"></path>
            <path d="M77.3066445,152.7073 L57.3916445,150.8673 L52.4236445,204.6383 C52.1636445,207.4533 53.8916445,209.9933 56.4536445,210.8683 C56.9676445,211.0683 57.5176445,211.2013 58.0946445,211.2533 L85.9796445,213.7883 C89.2806445,214.0883 92.1986445,211.6563 92.4986445,208.3563 L93.2226445,200.3893 C93.5226445,197.0893 91.0906445,194.1713 87.7906445,193.8713 L73.6226445,192.5823 L77.3066445,152.7073 Z" id="Path" fill="#FFFFFF"></path>
            <path d="M57.3916445,150.8673 L57.4836445,149.8713 L56.4876445,149.7793 L56.3956445,150.7753 L57.3916445,150.8673 Z M77.3066445,152.7073 L78.3026445,152.7993 L78.3946445,151.8033 L77.3986445,151.7113 L77.3066445,152.7073 Z M52.4236445,204.6383 L53.4196445,204.7303 L53.4196445,204.7303 L52.4236445,204.6383 Z M56.4536445,210.8683 L56.8166445,209.9363 L56.7966445,209.9283 L56.7766445,209.9213 L56.4536445,210.8683 Z M58.0946445,211.2533 L58.1856445,210.2573 L58.1856445,210.2573 L58.0946445,211.2533 Z M85.9796445,213.7883 L86.0706445,212.7923 L86.0706445,212.7923 L85.9796445,213.7883 Z M92.4986445,208.3563 L93.4946445,208.4473 L93.4946445,208.4473 L92.4986445,208.3563 Z M93.2226445,200.3893 L92.2276445,200.2993 L92.2276445,200.2993 L93.2226445,200.3893 Z M87.7906445,193.8713 L87.7006445,194.8663 L87.7006445,194.8663 L87.7906445,193.8713 Z M73.6226445,192.5823 L72.6266445,192.4903 L72.5346445,193.4883 L73.5316445,193.5783 L73.6226445,192.5823 Z M57.2996445,151.8633 L77.2146445,153.7033 L77.3986445,151.7113 L57.4836445,149.8713 L57.2996445,151.8633 Z M53.4196445,204.7303 L58.3866445,150.9593 L56.3956445,150.7753 L51.4276445,204.5463 L53.4196445,204.7303 Z M56.7766445,209.9213 C54.6416445,209.1923 53.2026445,207.0743 53.4196445,204.7303 L51.4276445,204.5463 C51.1246445,207.8313 53.1416445,210.7933 56.1306445,211.8143 L56.7766445,209.9213 Z M58.1856445,210.2573 C57.7026445,210.2133 57.2446445,210.1033 56.8166445,209.9363 L56.0896445,211.7993 C56.6906445,212.0343 57.3326445,212.1883 58.0046445,212.2493 L58.1856445,210.2573 Z M86.0706445,212.7923 L58.1856445,210.2573 L58.0046445,212.2493 L85.8896445,214.7843 L86.0706445,212.7923 Z M91.5026445,208.2663 C91.2526445,211.0163 88.8206445,213.0433 86.0706445,212.7923 L85.8896445,214.7843 C89.7396445,215.1343 93.1446445,212.2973 93.4946445,208.4473 L91.5026445,208.2663 Z M92.2276445,200.2993 L91.5026445,208.2663 L93.4946445,208.4473 L94.2186445,200.4803 L92.2276445,200.2993 Z M87.7006445,194.8663 C90.4506445,195.1163 92.4776445,197.5493 92.2276445,200.2993 L94.2186445,200.4803 C94.5686445,196.6303 91.7316445,193.2253 87.8816445,192.8753 L87.7006445,194.8663 Z M73.5316445,193.5783 L87.7006445,194.8663 L87.8816445,192.8753 L73.7126445,191.5863 L73.5316445,193.5783 Z M76.3106445,152.6153 L72.6266445,192.4903 L74.6186445,192.6743 L78.3026445,152.7993 L76.3106445,152.6153 Z" id="Shape" fill="#000000" fill-rule="nonzero"></path>
            <path d="M158.573645,57.3363 C158.664645,52.9189 155.157645,49.2643 150.739645,49.1735 L57.4186445,47.2539 C53.0016445,47.1631 49.3466445,50.6704 49.2556445,55.0877 L49.0426445,65.4605 C48.9516445,69.8778 45.2976445,73.3851 40.8799445,73.2943 L32.4013445,73.1199 C27.9840445,73.029 24.3293445,76.5363 24.2385445,80.9533 L22.8704445,147.4663 C22.7795445,151.8833 26.2868445,155.5383 30.7042445,155.6293 L171.476645,158.5243 C175.893645,158.6153 179.548645,155.1083 179.639645,150.6913 L181.007645,84.1783 C181.098645,79.7613 177.590645,76.1063 173.173645,76.0154 L166.194645,75.8719 C161.776645,75.781 158.269645,72.1264 158.360645,67.7091 L158.573645,57.3363 Z" id="Path" fill="#FFFFFF"></path>
            <path d="M158.360645,67.7091 L157.360645,67.6885 L158.360645,67.7091 Z M181.007645,84.1783 L180.007645,84.1573 L181.007645,84.1783 Z M179.639645,150.6913 L180.638645,150.7113 L179.639645,150.6913 Z M150.739645,49.1735 L150.719645,50.1732 L150.739645,49.1735 Z M158.573645,57.3363 L159.573645,57.3568 L158.573645,57.3363 Z M57.4186445,47.2539 L57.4396445,46.2541 L57.4186445,47.2539 Z M57.3986445,48.2537 L150.719645,50.1732 L150.760645,48.1737 L57.4396445,46.2541 L57.3986445,48.2537 Z M50.0426445,65.4811 L50.2556445,55.1083 L48.2566445,55.0671 L48.0426445,65.4399 L50.0426445,65.4811 Z M32.3807445,74.1197 L40.8593445,74.2941 L40.9004445,72.2945 L32.4219445,72.1201 L32.3807445,74.1197 Z M23.8702445,147.4873 L25.2383445,80.9743 L23.2387445,80.9333 L21.8706445,147.4463 L23.8702445,147.4873 Z M171.496645,157.5253 L30.7247445,154.6293 L30.6836445,156.6293 L171.455645,159.5243 L171.496645,157.5253 Z M180.007645,84.1573 L178.639645,150.6703 L180.638645,150.7113 L182.006645,84.1993 L180.007645,84.1573 Z M166.173645,76.8717 L173.152645,77.0152 L173.193645,75.0157 L166.214645,74.8721 L166.173645,76.8717 Z M157.573645,57.3157 L157.360645,67.6885 L159.360645,67.7296 L159.573645,57.3568 L157.573645,57.3157 Z M166.214645,74.8721 C162.349645,74.7926 159.280645,71.5948 159.360645,67.7296 L157.360645,67.6885 C157.258645,72.658 161.204645,76.7695 166.173645,76.8717 L166.214645,74.8721 Z M182.006645,84.1993 C182.109645,79.2293 178.163645,75.1179 173.193645,75.0157 L173.152645,77.0152 C177.017645,77.0947 180.086645,80.2923 180.007645,84.1573 L182.006645,84.1993 Z M171.455645,159.5243 C176.425645,159.6263 180.536645,155.6813 180.638645,150.7113 L178.639645,150.6703 C178.559645,154.5353 175.361645,157.6043 171.496645,157.5253 L171.455645,159.5243 Z M21.8706445,147.4463 C21.7684445,152.4153 25.7141445,156.5263 30.6836445,156.6293 L30.7247445,154.6293 C26.8596445,154.5503 23.7907445,151.3523 23.8702445,147.4873 L21.8706445,147.4463 Z M32.4219445,72.1201 C27.4524445,72.0179 23.3409445,75.9636 23.2387445,80.9333 L25.2383445,80.9743 C25.3178445,77.1091 28.5156445,74.0402 32.3807445,74.1197 L32.4219445,72.1201 Z M48.0426445,65.4399 C47.9636445,69.3051 44.7656445,72.374 40.9004445,72.2945 L40.8593445,74.2941 C45.8286445,74.3963 49.9406445,70.4506 50.0426445,65.4811 L48.0426445,65.4399 Z M150.719645,50.1732 C154.584645,50.2527 157.653645,53.4505 157.573645,57.3157 L159.573645,57.3568 C159.675645,52.3873 155.730645,48.2759 150.760645,48.1737 L150.719645,50.1732 Z M57.4396445,46.2541 C52.4696445,46.1519 48.3586445,50.0976 48.2566445,55.0671 L50.2556445,55.1083 C50.3356445,51.2431 53.5336445,48.1742 57.3986445,48.2537 L57.4396445,46.2541 Z" id="Shape" fill="#000000" fill-rule="nonzero"></path>
            <path d="M131.862645,131.9223 C126.184645,131.8923 120.453645,130.9643 115.192645,125.8593" id="Path" stroke="#000000" stroke-width="12" stroke-linecap="round" stroke-linejoin="round"></path>
            <g id="Clipped" transform="translate(76.135, 98.2503)">
                <mask id="mask-2" fill="white">
                    <use xlink:href="#path-1" transform="translate(11.1294, 22.17) rotate(1.6603) translate(-11.1294, -22.17)"></use>
                </mask>
                <g id="Rectangle" transform="translate(11.1294, 22.17) rotate(1.6603) translate(-11.1294, -22.17)"></g>
                <g id="Group" mask="url(#mask-2)">
                    <g transform="translate(-0, -0)" id="Rectangle">
                        <rect stroke="none" fill="#000000" fill-rule="nonzero" transform="translate(11.1294, 22.17) rotate(1.6603) translate(-11.1294, -22.17)" x="0.629397884" y="0.295043074" width="21" height="43.75"></rect>
                        <rect stroke="none" fill="#FFFFFF" fill-rule="nonzero" transform="translate(15.0015, 9.3211) rotate(1.6603) translate(-15.0015, -9.3211)" x="10.2015219" y="4.52105997" width="9.6" height="9.6" rx="3"></rect>
                        <rect stroke="#000000" stroke-width="3" fill="none" transform="translate(11.1295, 22.1702) rotate(1.6603) translate(-11.1295, -22.1702)" x="2.12948863" y="1.79521183" width="18" height="40.75"></rect>
                    </g>
                </g>
            </g>
            <g id="Clipped" transform="translate(147.302, 100.5053)">
                <mask id="mask-4" fill="white">
                    <use xlink:href="#path-3" transform="translate(11.1294, 22.17) rotate(1.6603) translate(-11.1294, -22.17)"></use>
                </mask>
                <g id="Rectangle" transform="translate(11.1294, 22.17) rotate(1.6603) translate(-11.1294, -22.17)"></g>
                <g id="Group" mask="url(#mask-4)">
                    <g transform="translate(-0, -0)" id="Rectangle">
                        <rect stroke="none" fill="#000000" fill-rule="nonzero" transform="translate(11.1294, 22.17) rotate(1.6603) translate(-11.1294, -22.17)" x="0.629397884" y="0.295043074" width="21" height="43.75"></rect>
                        <rect stroke="none" fill="#FFFFFF" fill-rule="nonzero" transform="translate(13.0015, 9.3431) rotate(1.6603) translate(-13.0015, -9.3431)" x="8.20152191" y="4.54305997" width="9.6" height="9.6" rx="3"></rect>
                        <rect stroke="#000000" stroke-width="3" fill="none" transform="translate(11.1295, 22.1702) rotate(1.6603) translate(-11.1295, -22.1702)" x="2.12948863" y="1.79521183" width="18" height="40.75"></rect>
                    </g>
                </g>
            </g>
            <rect id="Rectangle" fill="#FFFFFF" fill-rule="nonzero" transform="translate(84.9313, 140.2516) scale(-1, 1) rotate(164.6974) translate(-84.9313, -140.2516)" x="67.9313141" y="133.251615" width="33.9999871" height="14"></rect>
            <path d="M59.3806445,164.1253 L58.7486445,161.5513 C58.2546445,159.5393 56.4506445,158.1253 54.3786445,158.1253 L43.4976445,158.1253 C41.4326445,158.1253 39.6327445,159.5303 39.1319445,161.5333 L38.4840445,164.1253" id="Path" stroke="#000000" stroke-width="6" stroke-linecap="round"></path>
            <path d="M80.5266445,163.8003 L20.7180445,163.8003 C14.0905445,163.8003 8.71804455,169.1723 8.71804455,175.8003 L8.71804455,178.9203 L80.5266445,178.9203 L80.5266445,163.8003 Z" id="Path" stroke="#000000" stroke-width="2" fill="#FFFFFF" fill-rule="nonzero"></path>
            <path d="M92.0776445,178.9203 L69.2906445,178.9203 L69.2906445,202.9203 L87.5776445,202.9203 C90.0626445,202.9203 92.0776445,200.9053 92.0776445,198.4203 L92.0776445,178.9203 Z" id="Path" stroke="#000000" stroke-width="2" fill="#FFFFFF" fill-rule="nonzero"></path>
            <path d="M92.0776445,175.1933 C92.0776445,168.9003 86.9766445,163.8003 80.6836445,163.8003 L80.6836445,163.8003 C74.3916445,163.8003 69.2906445,168.9003 69.2906445,175.1933 L69.2906445,178.9203 L92.0776445,178.9203 L92.0776445,175.1933 Z" id="Path" stroke="#000000" stroke-width="2" fill="#FFFFFF" fill-rule="nonzero"></path>
            <path d="M69.2906445,178.9203 L8.71824455,178.9203 L8.71824455,198.4203 C8.71824455,200.9053 10.7329445,202.9203 13.2182445,202.9203 L69.2906445,202.9203 L69.2906445,178.9203 Z" id="Path" stroke="#000000" stroke-width="2" fill="#FFFFFF" fill-rule="nonzero"></path>
            <path d="M57.7536445,175.1703 L50.2536445,175.1703 L50.2536445,181.9203 C50.2536445,183.1623 51.2616445,184.1703 52.5036445,184.1703 L55.5036445,184.1703 C56.7466445,184.1703 57.7536445,183.1623 57.7536445,181.9203 L57.7536445,175.1703 Z" id="Path" stroke="#000000" stroke-width="2" fill="#FFFFFF" fill-rule="nonzero"></path>
            <path d="M27.7540445,175.1703 L20.2540445,175.1703 L20.2540445,181.9203 C20.2540445,183.1623 21.2614445,184.1703 22.5040445,184.1703 L25.5040445,184.1703 C26.7466445,184.1703 27.7540445,183.1623 27.7540445,181.9203 L27.7540445,175.1703 Z" id="Path" stroke="#000000" stroke-width="2" fill="#FFFFFF" fill-rule="nonzero"></path>
            <path d="M36.3059445,103.5403 C39.1062445,105.3113 39.9399445,109.0183 38.1682445,111.8183 L26.3403445,130.5123 L55.0526445,148.6683 C57.8536445,150.4403 58.6876445,154.1463 56.9166445,156.9463 L52.6416445,163.7083 C50.8706445,166.5093 47.1646445,167.3433 44.3636445,165.5723 L3.79414455,139.9183 C0.99344455,138.1473 0.15864455,134.4413 1.92974455,131.6403 L9.41214455,119.8083 L9.43644455,119.8233 L21.2670445,101.1253 C23.0387445,98.3243 26.7451445,97.4903 29.5454445,99.2623 L36.3059445,103.5403 Z" id="Path" fill="#FFFFFF"></path>
            <path d="M38.1682445,111.8183 L37.3231445,111.2833 L37.3231445,111.2833 L38.1682445,111.8183 Z M36.3059445,103.5403 L36.8405445,102.6943 L36.8405445,102.6943 L36.3059445,103.5403 Z M26.3403445,130.5123 L25.4952445,129.9783 L24.9604445,130.8233 L25.8058445,131.3573 L26.3403445,130.5123 Z M55.0526445,148.6683 L55.5866445,147.8233 L55.5866445,147.8233 L55.0526445,148.6683 Z M56.9166445,156.9463 L56.0716445,156.4123 L56.0716445,156.4123 L56.9166445,156.9463 Z M52.6416445,163.7083 L53.4866445,164.2423 L53.4866445,164.2423 L52.6416445,163.7083 Z M44.3636445,165.5723 L43.8286445,166.4183 L43.8286445,166.4183 L44.3636445,165.5723 Z M3.79414455,139.9183 L3.25964455,140.7643 L3.25964455,140.7643 L3.79414455,139.9183 Z M1.92974455,131.6403 L2.77494455,132.1753 L2.77494455,132.1753 L1.92974455,131.6403 Z M9.41214455,119.8083 L9.94664455,118.9633 L9.10144455,118.4283 L8.56694455,119.2733 L9.41214455,119.8083 Z M9.43644455,119.8233 L8.90194455,120.6683 L9.74694455,121.2033 L10.2814445,120.3583 L9.43644455,119.8233 Z M21.2670445,101.1253 L22.1121445,101.6593 L22.1121445,101.6593 L21.2670445,101.1253 Z M29.5454445,99.2623 L30.0801445,98.4173 L30.0801445,98.4173 L29.5454445,99.2623 Z M39.0133445,112.3533 C41.0803445,109.0863 40.1075445,104.7623 36.8405445,102.6943 L35.7712445,104.3853 C38.1048445,105.8613 38.7996445,108.9503 37.3231445,111.2833 L39.0133445,112.3533 Z M27.1853445,131.0473 L39.0133445,112.3533 L37.3231445,111.2833 L25.4952445,129.9783 L27.1853445,131.0473 Z M55.5866445,147.8233 L26.8747445,129.6673 L25.8058445,131.3573 L54.5186445,149.5143 L55.5866445,147.8233 Z M57.7626445,157.4813 C59.8286445,154.2133 58.8546445,149.8903 55.5866445,147.8233 L54.5186445,149.5143 C56.8526445,150.9903 57.5476445,154.0783 56.0716445,156.4123 L57.7626445,157.4813 Z M53.4866445,164.2423 L57.7626445,157.4813 L56.0716445,156.4123 L51.7966445,163.1743 L53.4866445,164.2423 Z M43.8286445,166.4183 C47.0966445,168.4843 51.4206445,167.5103 53.4866445,164.2423 L51.7966445,163.1743 C50.3206445,165.5073 47.2316445,166.2033 44.8976445,164.7273 L43.8286445,166.4183 Z M3.25964455,140.7643 L43.8286445,166.4183 L44.8976445,164.7273 L4.32864455,139.0733 L3.25964455,140.7643 Z M1.08454455,131.1063 C-0.98165545,134.3743 -0.00785545012,138.6973 3.25964455,140.7643 L4.32864455,139.0733 C1.99464455,137.5973 1.29904455,134.5093 2.77494455,132.1753 L1.08454455,131.1063 Z M8.56694455,119.2733 L1.08454455,131.1063 L2.77494455,132.1753 L10.2573445,120.3423 L8.56694455,119.2733 Z M9.97094455,118.9783 L9.94664455,118.9633 L8.87764455,120.6533 L8.90194455,120.6683 L9.97094455,118.9783 Z M20.4219445,100.5903 L8.59134455,119.2883 L10.2814445,120.3583 L22.1121445,101.6593 L20.4219445,100.5903 Z M30.0801445,98.4173 C26.8131445,96.3503 22.4890445,97.3233 20.4219445,100.5903 L22.1121445,101.6593 C23.5885445,99.3263 26.6771445,98.6313 29.0107445,100.1073 L30.0801445,98.4173 Z M36.8405445,102.6943 L30.0801445,98.4173 L29.0107445,100.1073 L35.7712445,104.3853 L36.8405445,102.6943 Z" id="Shape" fill="#000000" fill-rule="nonzero"></path>
            <polygon id="Path" fill="#000000" fill-rule="nonzero" points="56.5816445 156.2303 76.1346445 156.1253 75.7806445 160.2543 56.5816445 159.2543"></polygon>
            <rect id="Rectangle" fill="#FFFFFF" fill-rule="nonzero" transform="translate(158.2924, 141.6553) rotate(-9.2535) translate(-158.2924, -141.6553)" x="144.922476" y="135.655291" width="26.7398" height="12"></rect>
            <path d="M62.3336445,163.4093 L63.0496445,166.3223 L57.2226445,167.7543 L56.5066445,164.8413 L62.3336445,163.4093 Z M52.3976445,161.1253 C50.7406445,161.1253 49.3976445,159.7823 49.3976445,158.1253 C49.3976445,156.4683 50.7406445,155.1253 52.3976445,155.1253 L52.3976445,161.1253 Z M56.5066445,164.8413 L55.8746445,162.2673 L61.7006445,160.8353 L62.3336445,163.4093 L56.5066445,164.8413 Z M54.4176445,161.1253 L52.3976445,161.1253 L52.3976445,155.1253 L54.4176445,155.1253 L54.4176445,161.1253 Z M55.8746445,162.2673 C55.7096445,161.5963 55.1086445,161.1253 54.4176445,161.1253 L54.4176445,155.1253 C57.8706445,155.1253 60.8776445,157.4823 61.7006445,160.8353 L55.8746445,162.2673 Z" id="Shape" fill="#000000" fill-rule="nonzero"></path>
            <rect id="Rectangle" fill="#FFFFFF" fill-rule="nonzero" x="55.8286445" y="164.8013" width="9.98877" height="3.60742"></rect>
            <rect id="Rectangle" stroke="#000000" stroke-width="2" fill="#FFFFFF" fill-rule="nonzero" transform="translate(136.5323, 19.1427) rotate(10.6007) translate(-136.5323, -19.1427)" x="125.282281" y="1.77314345" width="22.5" height="34.7391" rx="6"></rect>
            <path d="M72.7046445,12.9338 L67.4626445,5.9563 C65.4726445,3.3069 61.7106445,2.7728 59.0616445,4.7632 L50.6666445,11.0702 C48.0176445,13.0606 47.4836445,16.8219 49.4736445,19.4712 L55.4576445,27.4354 C50.5316445,33.9907 46.6936445,42.3347 44.4356445,52.825 C44.3606445,52.8342 44.3036445,52.8435 44.2646445,52.8528 C33.7691445,55.3911 35.8726445,67.8874 37.7279445,67.8775 C43.3826445,68.4048 49.1246445,71.3088 56.1816445,74.8778 C64.0696445,78.8663 73.5986445,83.6863 86.4856445,86.9463 C111.409645,93.2533 148.501645,94.8943 170.383645,82.8333 C170.383645,82.8333 182.100645,78.2593 173.780645,64.5929 C170.734645,59.5899 165.906645,56.0001 162.805645,53.6945 L162.606645,53.5466 C157.693645,28.5603 135.760645,7.748 107.848645,6.3238 C95.9466445,5.7165 83.5116445,7.3953 72.7046445,12.9338 Z" id="Path" fill="#FFFFFF"></path>
            <path d="M72.7046445,12.9338 L71.9056445,13.5345 L72.4116445,14.2079 L73.1606445,13.8238 L72.7046445,12.9338 Z M67.4626445,5.9563 L66.6626445,6.5569 L66.6626445,6.5569 L67.4626445,5.9563 Z M59.0616445,4.7632 L59.6626445,5.5627 L59.6626445,5.5627 L59.0616445,4.7632 Z M50.6666445,11.0702 L50.0666445,10.2707 L50.0666445,10.2707 L50.6666445,11.0702 Z M49.4736445,19.4712 L48.6746445,20.0719 L48.6746445,20.0719 L49.4736445,19.4712 Z M55.4576445,27.4354 L56.2566445,28.0362 L56.7076445,27.4355 L56.2566445,26.8348 L55.4576445,27.4354 Z M44.4356445,52.825 L44.5576445,53.8175 L45.2636445,53.7306 L45.4126445,53.0354 L44.4356445,52.825 Z M44.2646445,52.8528 L44.4996445,53.8248 L44.4996445,53.8248 L44.2646445,52.8528 Z M37.7279445,67.8775 L37.8208445,66.8818 L37.7718445,66.8773 L37.7226445,66.8775 L37.7279445,67.8775 Z M56.1816445,74.8778 L56.6326445,73.9854 L56.6326445,73.9854 L56.1816445,74.8778 Z M86.4856445,86.9463 L86.2396445,87.9163 L86.2396445,87.9163 L86.4856445,86.9463 Z M170.383645,82.8333 L170.020645,81.9023 L169.958645,81.9263 L169.901645,81.9573 L170.383645,82.8333 Z M173.780645,64.5929 L174.634645,64.0729 L174.634645,64.0729 L173.780645,64.5929 Z M162.805645,53.6945 L162.208645,54.4969 L162.208645,54.497 L162.805645,53.6945 Z M162.606645,53.5466 L161.625645,53.7395 L161.699645,54.1185 L162.009645,54.349 L162.606645,53.5466 Z M107.848645,6.3238 L107.797645,7.3225 L107.848645,6.3238 Z M73.5046445,12.3332 L68.2616445,5.3556 L66.6626445,6.5569 L71.9056445,13.5345 L73.5046445,12.3332 Z M68.2616445,5.3556 C65.9396445,2.2647 61.5516445,1.6416 58.4606445,3.9637 L59.6626445,5.5627 C61.8696445,3.9041 65.0046445,4.3492 66.6626445,6.5569 L68.2616445,5.3556 Z M58.4606445,3.9637 L50.0666445,10.2707 L51.2676445,11.8697 L59.6626445,5.5627 L58.4606445,3.9637 Z M50.0666445,10.2707 C46.9756445,12.5929 46.3516445,16.981 48.6746445,20.0719 L50.2736445,18.8705 C48.6146445,16.6628 49.0596445,13.5284 51.2676445,11.8697 L50.0666445,10.2707 Z M48.6746445,20.0719 L54.6576445,28.0361 L56.2566445,26.8348 L50.2736445,18.8705 L48.6746445,20.0719 Z M54.6576445,26.8347 C49.6346445,33.5197 45.7426445,42.0011 43.4576445,52.6145 L45.4126445,53.0354 C47.6446445,42.6683 51.4286445,34.4616 56.2566445,28.0362 L54.6576445,26.8347 Z M44.3136445,51.8325 C44.2276445,51.8429 44.1256445,51.8577 44.0296445,51.8809 L44.4996445,53.8248 C44.4926445,53.8266 44.4886445,53.8274 44.4886445,53.8273083 C44.4886445,53.8273083 44.4916445,53.8267 44.4976445,53.8258 C44.5096445,53.8238 44.5296445,53.8209 44.5576445,53.8175 L44.3136445,51.8325 Z M44.0296445,51.8808 C38.2995445,53.2667 35.9794445,57.4249 35.3775445,61.1617 C35.0795445,63.0111 35.1929445,64.7859 35.5189445,66.1272 C35.6807445,66.7925 35.9064445,67.3996 36.1960445,67.8662 C36.4383445,68.2566 36.9358445,68.8817 37.7332445,68.8775211 L37.7226445,66.8775 C38.0562445,66.8758 38.0821445,67.1126 37.8953445,66.8115 C37.7557445,66.5867 37.5947445,66.1994 37.4623445,65.6548 C37.2002445,64.5765 37.0958445,63.0705 37.3520445,61.4798 C37.8584445,58.3364 39.7344445,54.9773 44.4996445,53.8248 L44.0296445,51.8808 Z M37.6351445,68.8732 C43.0606445,69.3792 48.6176445,72.1731 55.7306445,75.7702 L56.6326445,73.9854 C49.6316445,70.4446 43.7046445,67.4305 37.8208445,66.8818 L37.6351445,68.8732 Z M55.7306445,75.7702 C63.6216445,79.7613 73.2376445,84.6263 86.2396445,87.9163 L86.7306445,85.9773 C73.9606445,82.7463 64.5166445,77.9723 56.6326445,73.9854 L55.7306445,75.7702 Z M86.2396445,87.9163 C98.7866445,91.0903 114.379645,93.0883 129.595645,92.7773 C144.794645,92.4673 159.723645,89.8513 170.866645,83.7093 L169.901645,81.9573 C159.162645,87.8763 144.604645,90.4703 129.555645,90.7783 C114.523645,91.0853 99.1086445,89.1093 86.7306445,85.9773 L86.2396445,87.9163 Z M170.383645,82.8333 C170.747645,83.7653 170.748645,83.7643 170.748645,83.7643 C170.748645,83.7643 170.749645,83.7643 170.750645,83.7643 C170.751645,83.7633 170.752645,83.7633 170.754645,83.7623 C170.757645,83.7613 170.760645,83.7593 170.765645,83.7583 C170.773645,83.7543 170.785645,83.7493 170.799645,83.7443 C170.827645,83.7323 170.867645,83.7153 170.915645,83.6943 C171.013645,83.6513 171.149645,83.5883 171.317645,83.5053 C171.652645,83.3383 172.113645,83.0853 172.637645,82.7383 C173.679645,82.0473 174.995645,80.9603 176.035645,79.3903 C177.083645,77.8084 177.837645,75.7543 177.759645,73.178 C177.681645,70.6129 176.780645,67.5974 174.634645,64.0729 L172.926645,65.113 C174.940645,68.4216 175.695645,71.1027 175.760645,73.2389 C175.824645,75.3639 175.209645,77.0158 174.368645,78.2853 C173.519645,79.5673 172.426645,80.4783 171.531645,81.0713 C171.086645,81.3673 170.697645,81.5793 170.424645,81.7153 C170.287645,81.7833 170.180645,81.8323 170.110645,81.8633 C170.075645,81.8783 170.050645,81.8893 170.034645,81.8963 C170.026645,81.8993 170.021645,81.9013 170.019645,81.9023 C170.018645,81.9023 170.017645,81.9033 170.017645,81.9033 C170.017645,81.9033 170.017645,81.9023 170.018645,81.9023 C170.018645,81.9023 170.018645,81.9023 170.019645,81.9023 C170.019645,81.9023 170.020645,81.9023 170.383645,82.8333 Z M174.634645,64.0729 C171.472645,58.8801 166.485645,55.1851 163.401645,52.892 L162.208645,54.497 C165.326645,56.8151 169.995645,60.2997 172.926645,65.113 L174.634645,64.0729 Z M163.401645,52.8921 L163.203645,52.7442 L162.009645,54.349 L162.208645,54.4969 L163.401645,52.8921 Z M163.587645,53.3537 C158.589645,27.937 136.289645,6.7737 107.899645,5.3251 L107.797645,7.3225 C135.231645,8.7223 156.796645,29.1836 161.625645,53.7395 L163.587645,53.3537 Z M107.899645,5.3251 C95.8786445,4.7117 83.2566445,6.4025 72.2486445,12.0439 L73.1606445,13.8238 C83.7676445,8.3881 96.0136445,6.7212 107.797645,7.3225 L107.899645,5.3251 Z" id="Shape" fill="#000000" fill-rule="nonzero"></path>
            <path d="M61.5076445,35.4478 L49.4936445,19.4583 C47.5036445,16.8091 48.0376445,13.0478 50.6866445,11.0572 L59.0806445,4.7499 C61.7306445,2.7594 65.4916445,3.2933 67.4816445,5.9426 L79.4956445,21.9321" id="Path" stroke="#000000" stroke-width="2" stroke-linecap="round"></path>
            <path d="M78.5146445,6.945 C99.7416445,4.2407 114.868645,32.1521 115.731645,46.815 C108.315645,23.2766 91.2196445,10.2996 75.6316445,10.4471 L78.5146445,6.945 Z" id="Path" fill="#000000" fill-rule="nonzero"></path>
            <path d="M165.185645,66.1339 C165.475645,65.6574 165.329645,65.0454 164.859645,64.7669 C164.389645,64.4883 163.772645,64.6487 163.482645,65.1252 L165.185645,66.1339 Z M87.9256445,73.5669 L87.5656445,74.508 L87.5656445,74.508 L87.9256445,73.5669 Z M62.8576445,60.9051 L62.3256445,61.7636 L62.3256445,61.7636 L62.8576445,60.9051 Z M87.5656445,74.508 C99.5166445,78.8063 116.426645,80.6623 131.520645,79.5253 C139.073645,78.9573 146.220645,77.6359 152.095645,75.4674 C157.947645,73.3072 162.672645,70.2555 165.185645,66.1339 L163.482645,65.1252 C161.321645,68.6697 157.106645,71.5038 151.441645,73.5948 C145.799645,75.6775 138.851645,76.9732 131.418645,77.5328 C116.542645,78.6533 99.9226445,76.8113 88.2846445,72.6257 L87.5656445,74.508 Z M43.2026445,54.1936 C43.9216445,53.7863 45.0026445,53.6815 46.4826445,53.9585 C47.9406445,54.2314 49.6356445,54.8464 51.4556445,55.6787 C55.0976445,57.3438 59.0466445,59.7844 62.3256445,61.7636 L63.3906445,60.0465 C60.1546445,58.0927 56.0926445,55.5805 52.3256445,53.858 C50.4406445,52.9965 48.5816445,52.309 46.8966445,51.9938 C45.2346445,51.6827 43.5846445,51.7042 42.2476445,52.4607 L43.2026445,54.1936 Z M62.3256445,61.7636 C67.0816445,64.6346 78.0226445,71.0758 87.5656445,74.508 L88.2846445,72.6257 C78.9466445,69.2671 68.1556445,62.9225 63.3906445,60.0465 L62.3256445,61.7636 Z" id="Shape" fill="#000000" fill-rule="nonzero"></path>
            <g id="Clipped" transform="translate(159.1111, 151.9863)">
                <mask id="mask-6" fill="white">
                    <use xlink:href="#path-5"></use>
                </mask>
                <g id="Path"></g>
                <g id="Group" mask="url(#mask-6)" fill-rule="nonzero" stroke="#000000" stroke-width="2">
                    <g transform="translate(0, -0.214)" id="Path">
                        <path d="M67.6064957,8.253 L64.6804957,0.214 L2.20749568,19.777 C1.85349568,19.888 1.52149568,20.061 1.22649568,20.288 L1.22649568,20.288 C0.140495683,21.125 -0.279504317,22.57 0.190495683,23.858 L3.00549568,31.594 C3.47449568,32.883 4.72449568,33.72 6.09449568,33.663 L6.09449568,33.663 C6.46649568,33.648 6.83149568,33.567 7.17449568,33.424 L67.6064957,8.253 Z" fill="#000000"></path>
                        <polygon fill="#FFFFFF" points="68.1414957 8.083 65.1994957 0 42.1364957 7.324 41.8174957 7.976 45.1034957 17.003 45.7664957 17.297"></polygon>
                    </g>
                </g>
            </g>
            <path d="M236.087645,145.5603 C236.084645,145.5613 236.081645,145.5603 236.079645,145.5573 C233.706645,142.2803 226.896645,134.2163 215.652645,131.0803 C214.616645,130.7913 213.536645,131.3083 213.053645,132.2693 L213.053645,132.2693 C212.303645,133.7593 213.297645,135.7053 214.772645,136.4843 C218.005645,138.1913 221.767645,141.7023 224.215645,145.8513 C225.284645,147.6623 224.254645,149.8673 222.278645,150.5863 L220.909645,151.0843 C219.871645,151.4623 219.336645,152.6103 219.713645,153.6483 L222.248645,160.6113 C222.840645,162.2383 224.567645,163.1783 226.068645,164.0393 C227.405645,164.8053 228.566645,166.1743 229.205645,167.9313 C229.705645,169.3033 229.809645,170.6993 229.577645,171.9343 C229.386645,172.9503 229.274645,174.0173 229.628645,174.9893 L230.981645,178.7053 C231.340645,179.6913 232.430645,180.1993 233.416645,179.8413 L243.118645,176.3093 C244.104645,175.9513 244.612645,174.8603 244.253645,173.8743 L243.053645,170.5763 C242.708645,169.6283 241.963645,168.8953 241.197645,168.2393 C240.308645,167.4773 239.559645,166.4133 239.094645,165.1373 C238.500645,163.5023 238.485645,161.8353 238.943645,160.4743 C239.500645,158.8173 240.243645,156.9573 239.645645,155.3143 L236.110645,145.6013 C236.110645,145.6013 236.110645,145.6013 236.110645,145.6013 L236.110645,145.6013 C236.110645,145.6013 236.110645,145.6013 236.110645,145.6013 C236.110645,145.6013 236.110645,145.6003 236.110645,145.6003 C236.110645,145.6003 236.110645,145.6003 236.110645,145.6003 L236.097645,145.5643 C236.095645,145.5603 236.091645,145.5583 236.087645,145.5603 L236.087645,145.5603 Z" id="Path" fill="#FFFFFF"></path>
            <path d="M219.713645,153.6483 L218.774645,153.9903 L219.713645,153.6483 Z M230.981645,178.7053 L231.920645,178.3633 L230.981645,178.7053 Z M244.253645,173.8743 L245.193645,173.5323 L244.253645,173.8743 Z M236.110645,145.6003 L235.300645,146.1883 L236.110645,145.6003 Z M236.110645,145.6013 L235.170645,145.9433 L236.110645,145.6013 Z M239.645645,155.3143 L238.706645,155.6563 L239.645645,155.3143 Z M229.577645,171.9343 L230.560645,172.1193 L229.577645,171.9343 Z M214.772645,136.4843 L214.305645,137.3683 L214.772645,136.4843 Z M236.110645,145.6013 L236.920645,145.0143 L236.110645,145.6013 Z M222.248645,160.6113 L223.188645,160.2693 L222.248645,160.6113 Z M236.079645,145.5573 L235.269645,146.1443 L236.079645,145.5573 Z M215.921645,130.1173 C227.482645,133.3423 234.460645,141.6173 236.889645,144.9713 L235.269645,146.1443 C232.951645,142.9433 226.310645,135.0913 215.383645,132.0433 L215.921645,130.1173 Z M223.354645,146.3593 C220.992645,142.3563 217.361645,138.9823 214.305645,137.3683 L215.239645,135.6003 C218.649645,137.4013 222.542645,141.0483 225.077645,145.3433 L223.354645,146.3593 Z M220.567645,150.1443 L221.936645,149.6463 L222.620645,151.5253 L221.251645,152.0243 L220.567645,150.1443 Z M218.774645,153.9903 C218.207645,152.4333 219.010645,150.7113 220.567645,150.1443 L221.251645,152.0243 C220.732645,152.2133 220.464645,152.7873 220.653645,153.3063 L218.774645,153.9903 Z M221.308645,160.9533 L218.774645,153.9903 L220.653645,153.3063 L223.188645,160.2693 L221.308645,160.9533 Z M228.266645,168.2733 C227.700645,166.7183 226.685645,165.5453 225.571645,164.9063 L226.566645,163.1713 C228.125645,164.0653 229.432645,165.6313 230.145645,167.5893 L228.266645,168.2733 Z M228.594645,171.7493 C228.791645,170.6993 228.707645,169.4853 228.266645,168.2733 L230.145645,167.5893 C230.703645,169.1223 230.826645,170.6993 230.560645,172.1193 L228.594645,171.7493 Z M230.041645,179.0473 L228.688645,175.3313 L230.568645,174.6473 L231.920645,178.3633 L230.041645,179.0473 Z M233.758645,180.7803 C232.253645,181.3283 230.589645,180.5523 230.041645,179.0473 L231.920645,178.3633 C232.090645,178.8303 232.607645,179.0713 233.074645,178.9013 L233.758645,180.7803 Z M243.460645,177.2493 L233.758645,180.7803 L233.074645,178.9013 L242.776645,175.3703 L243.460645,177.2493 Z M245.193645,173.5323 C245.741645,175.0373 244.965645,176.7013 243.460645,177.2493 L242.776645,175.3703 C243.243645,175.2003 243.484645,174.6833 243.314645,174.2163 L245.193645,173.5323 Z M243.992645,170.2343 L245.193645,173.5323 L243.314645,174.2163 L242.113645,170.9183 L243.992645,170.2343 Z M240.034645,164.7953 C240.443645,165.9173 241.095645,166.8353 241.847645,167.4793 L240.547645,168.9983 C239.521645,168.1203 238.676645,166.9093 238.155645,165.4793 L240.034645,164.7953 Z M239.891645,160.7933 C239.511645,161.9213 239.510645,163.3543 240.034645,164.7953 L238.155645,165.4793 C237.489645,163.6503 237.459645,161.7493 237.995645,160.1553 L239.891645,160.7933 Z M237.050645,145.2593 L240.585645,154.9723 L238.706645,155.6563 L235.170645,145.9433 L237.050645,145.2593 Z M236.919645,145.0133 C236.920645,145.0143 236.920645,145.0153 236.921645,145.0153 C236.921645,145.0163 236.921645,145.0163 236.921645,145.0163 C236.922645,145.0173 236.921645,145.0153 236.920645,145.0143 L235.300645,146.1873 L235.300645,146.1883 L236.919645,145.0133 Z M237.036645,145.2223 L237.049645,145.2583 L235.170645,145.9423 L235.157645,145.9063 L237.036645,145.2223 Z M235.157645,145.9063 C235.344645,146.4213 235.914645,146.6873 236.429645,146.4993 L235.745645,144.6203 C236.268645,144.4303 236.846645,144.6993 237.036645,145.2223 L235.157645,145.9063 Z M235.300645,146.1883 C235.246645,146.1133 235.202645,146.0313 235.170645,145.9423 L237.049645,145.2583 C237.017645,145.1703 236.973645,145.0883 236.919645,145.0133 L235.300645,146.1883 Z M235.170645,145.9433 C234.981645,145.4243 235.249645,144.8503 235.768645,144.6613 L236.452645,146.5403 C236.971645,146.3513 237.238645,145.7783 237.050645,145.2593 L235.170645,145.9433 Z M237.995645,160.1553 C238.288645,159.2853 238.583645,158.4883 238.748645,157.6873 C238.910645,156.9013 238.916645,156.2343 238.706645,155.6563 L240.585645,154.9723 C240.973645,156.0373 240.906645,157.1213 240.707645,158.0903 C240.510645,159.0453 240.155645,160.0073 239.891645,160.7933 L237.995645,160.1553 Z M230.560645,172.1193 C230.373645,173.1123 230.313645,173.9463 230.568645,174.6473 L228.688645,175.3313 C228.236645,174.0873 228.399645,172.7883 228.594645,171.7493 L230.560645,172.1193 Z M225.077645,145.3433 C226.525645,147.7973 225.063645,150.6363 222.620645,151.5253 L221.936645,149.6463 C223.444645,149.0973 224.043645,147.5273 223.354645,146.3593 L225.077645,145.3433 Z M242.113645,170.9183 C241.864645,170.2343 241.302645,169.6453 240.547645,168.9983 L241.847645,167.4793 C242.625645,168.1443 243.551645,169.0223 243.992645,170.2343 L242.113645,170.9183 Z M213.946645,132.7193 C213.738645,133.1323 213.741645,133.6693 213.993645,134.2403 C214.246645,134.8153 214.711645,135.3213 215.239645,135.6003 L214.305645,137.3683 C213.358645,136.8683 212.588645,136.0123 212.163645,135.0463 C211.736645,134.0783 211.617645,132.8963 212.159645,131.8203 L213.946645,132.7193 Z M235.768645,144.6613 C235.142645,144.8893 234.912645,145.6513 235.300645,146.1873 L236.920645,145.0143 C237.308645,145.5503 237.078645,146.3123 236.452645,146.5403 L235.768645,144.6613 Z M223.188645,160.2693 C223.396645,160.8423 223.821645,161.3433 224.436645,161.8263 C225.059645,162.3173 225.792645,162.7283 226.566645,163.1713 L225.571645,164.9063 C224.843645,164.4893 223.962645,163.9993 223.198645,163.3983 C222.426645,162.7903 221.692645,162.0083 221.308645,160.9533 L223.188645,160.2693 Z M236.889645,144.9713 C236.602645,144.5763 236.118645,144.4843 235.745645,144.6203 L236.429645,146.4993 C236.049645,146.6383 235.559645,146.5443 235.269645,146.1443 L236.889645,144.9713 Z M215.383645,132.0433 C214.837645,131.8913 214.229645,132.1573 213.946645,132.7193 L212.159645,131.8203 C212.844645,130.4603 214.394645,129.6913 215.921645,130.1173 L215.383645,132.0433 Z" id="Shape" fill="#000000" fill-rule="nonzero"></path>
            <path d="M173.333645,184.2303 C172.199645,181.1163 173.805645,177.6733 176.919645,176.5393 L185.252645,173.5063 C188.366645,172.3733 191.809645,173.9793 192.942645,177.0923 L193.294645,178.0583 C193.860645,179.6153 193.058645,181.3363 191.501645,181.9033 L177.529645,186.9883 C175.972645,187.5553 174.251645,186.7523 173.684645,185.1953 L173.333645,184.2303 Z" id="Path" stroke="#000000" stroke-width="2" fill="#FFFFFF" fill-rule="nonzero"></path>
            <polygon id="Path" fill="#000000" fill-rule="nonzero" points="123.146645 158.2303 142.700645 158.1253 142.345645 161.2543 123.146645 162.2543"></polygon>
            <path d="M48.3136445,42.2225 C51.3136445,38.8054 59.1146445,35.8144 61.2986445,36.4286 L54.4586445,27.3726 L49.3966445,36.4286 L48.3136445,42.2225 Z" id="Path" fill="#000000" fill-rule="nonzero"></path>
            <path d="M163.341645,65.5655 C163.386645,66.116 163.869645,66.5257 164.419645,66.4807 C164.970645,66.4357 165.379645,65.953 165.334645,65.4025 L163.341645,65.5655 Z M161.359645,51.8322 C161.941645,54.6908 162.941645,60.6701 163.341645,65.5655 L165.334645,65.4025 C164.926645,60.4058 163.911645,54.3447 163.319645,51.4335 L161.359645,51.8322 Z" id="Shape" fill="#000000" fill-rule="nonzero"></path>
            <polygon id="Path" fill="#000000" fill-rule="nonzero" points="39.8091445 110.5543 32.2854445 134.4023 26.3761445 130.5543"></polygon>
        </g>
    </g>
</svg>